<svg id="Layer_1" data-name="Layer 1" xmlns="http://www.w3.org/2000/svg" viewBox="0 0 1280 820"><defs><style>.cls-1{fill:#d42000;}.cls-2{fill:#976b00;}.cls-3{fill:#f7f6f6;}.cls-4{fill:#f8ffb8;}.cls-5{fill:#666;}.cls-6{fill:#fff;}.cls-7{fill:#66e4ee;}.cls-8{fill:#00b9bc;}.cls-9{fill:#929292;}.cls-10{fill:#f37322;}.cls-11{fill:#f8ab7a;}.cls-12{fill:#00607c;}.cls-13{fill:#00b033;}.cls-14{fill:#dff3fd;}</style></defs><title>map-groups</title><g id="_goal-group_" data-name="&lt;goal-group&gt;"><rect class="cls-1" x="198.33" y="264.25" width="8" height="54.31" transform="translate(-146.8 228.43) rotate(-45)"/><rect class="cls-1" x="175.18" y="287.41" width="54.31" height="8" transform="translate(-146.8 228.46) rotate(-45.01)"/><rect class="cls-2" x="167.05" y="291.12" width="4" height="40.82"/><rect class="cls-2" x="119.4" y="300.37" width="4" height="31.56"/><rect class="cls-3" x="115.17" y="293.1" width="59.51" height="4" transform="translate(-60.32 38.27) rotate(-12.47)"/><rect class="cls-4" x="105.74" y="356.16" width="82.51" height="4"/><rect class="cls-5" x="127.56" y="329.73" width="13.32" height="2.49"/><path class="cls-5" d="M141.38,332.72H127.06v-3.48h14.32Zm-13.32-1h12.32v-1.48H128.06Z"/><path class="cls-5" d="M167.34,336.53a10,10,0,0,0-3,.46l-7.25-15.7h-7.87v2.48h6.28l2.81,6.11-17.52,4.65h-6v1.85l-1.79,2a9.94,9.94,0,1,0,1.84,1.68l1.72-1.89,4.4,9.53h6.8l11.92-14.89,2.43,5.28a9.86,9.86,0,1,0,5.23-1.52m-40,17.28a7.4,7.4,0,1,1,0-14.79,7.29,7.29,0,0,1,4,1.18l-1.84,2a4.63,4.63,0,0,0-2.13-.53,4.73,4.73,0,1,0,4.72,4.73,4.66,4.66,0,0,0-.74-2.53l1.82-2a7.35,7.35,0,0,1-5.8,11.92m2.28-7.39a2.29,2.29,0,1,1-2.28-2.29,2.29,2.29,0,0,1,2.28,2.29m17-1.25h-4.09l-1.65-3.57h8.65Zm4.91-6H139.77l-1-2.17h2.37l15.53-4.13Zm15.79,14.67a7.39,7.39,0,0,1-4.18-13.49l1.15,2.5a4.7,4.7,0,1,0,3-1.13,6.48,6.48,0,0,0-.77.07l-1.14-2.46a7.6,7.6,0,0,1,1.91-.28,7.4,7.4,0,1,1,0,14.79m-2.28-7.39a2.28,2.28,0,1,1,2.28,2.28,2.29,2.29,0,0,1-2.28-2.28"/><path class="cls-5" d="M167.34,356.8a10.38,10.38,0,0,1-5.87-18.94l-1.91-4.15L148,348.16h-7.36L136.42,339l-.92,1a10.37,10.37,0,1,1-8.17-4,10.26,10.26,0,0,1,5.59,1.65l1.37-1.49V334h6.46l16.89-4.49-2.43-5.27h-6.46v-3.48h8.69l7.2,15.6a10.27,10.27,0,0,1,2.7-.36,10.39,10.39,0,0,1,0,20.77m-7.55-25,3,6.42-.38.23a9.34,9.34,0,1,0,2.15-1l-.42.13-7.3-15.81h-7.05v1.48h6.1L159,330.2,140.82,335h-5.53v1.55L133.08,339l-.37-.25a9.23,9.23,0,0,0-5.38-1.72,9.42,9.42,0,1,0,7.13,3.31l-.28-.34,2.52-2.77,4.58,9.93h6.24Zm7.55,22.49a7.89,7.89,0,0,1-4.46-14.4l.49-.33,1.55,3.37-.29.25a4.21,4.21,0,1,0,2.71-1,4.91,4.91,0,0,0-.67.06l-.37.06-.19-.34-1.38-3,.57-.15a8,8,0,0,1,2-.3,7.9,7.9,0,1,1,0,15.79M163,341.1a6.88,6.88,0,1,0,4.37-1.58,5.85,5.85,0,0,0-1.2.13l.73,1.57a3.71,3.71,0,0,1,.47,0,5.27,5.27,0,1,1-3.64,1.5Zm-35.64,13.21a7.9,7.9,0,1,1,0-15.79,7.78,7.78,0,0,1,4.24,1.26l.5.32-2.5,2.74-.34-.17a4.12,4.12,0,0,0-1.9-.48,4.24,4.24,0,1,0,3.56,2l-.21-.32,2.48-2.72.36.46a7.76,7.76,0,0,1,1.7,4.84,7.9,7.9,0,0,1-7.89,7.89m0-14.79a6.9,6.9,0,1,0,6.89,6.9,6.78,6.78,0,0,0-1.13-3.74L131.93,344a5.16,5.16,0,0,1,.62,2.46,5.23,5.23,0,1,1-5.22-5.23,5.1,5.1,0,0,1,2,.42l1.18-1.29a6.77,6.77,0,0,0-3.19-.8m40,9.68a2.79,2.79,0,1,1,2.78-2.78,2.79,2.79,0,0,1-2.78,2.78m0-4.57a1.79,1.79,0,1,0,1.78,1.79,1.79,1.79,0,0,0-1.78-1.79m-40,4.57a2.79,2.79,0,1,1,2.78-2.78,2.79,2.79,0,0,1-2.78,2.78m0-4.57a1.79,1.79,0,1,0,1.78,1.79,1.79,1.79,0,0,0-1.78-1.79m19.55,1h-4.65l-2.11-4.57H150.6Zm-4-1h3.53l2.1-2.57h-6.82Zm8.92-5H139.45L138,336.47h3.08L158,332Zm-11.7-1h11.22l4-4.92-14.17,3.75h-1.59Z"/></g><g id="_boats-group_" data-name="&lt;boats-group&gt;"><path class="cls-6" d="M373.86,636H339.49c-1,0-6.12-.47-11.33-9.86l-1.65-3h60.43l-2.12,3.12c-2,2.92-7,9.71-11,9.71m-40.28-8.83c1.86,2.51,4.19,4.83,5.91,4.83h34.37c.9,0,3.11-2.11,5.33-4.83Z"/><path class="cls-6" d="M416.1,617.37H381.73c-1,0-6.12-.47-11.33-9.86l-1.65-3h60.43l-2.12,3.12c-2,2.92-7,9.71-11,9.71m-40.28-8.83c1.86,2.51,4.19,4.83,5.91,4.83H416.1c.89,0,3.11-2.1,5.33-4.83Z"/><path class="cls-6" d="M420.91,657H386.54c-1,0-6.12-.48-11.33-9.86l-1.65-3H434l-2.12,3.12c-2,2.92-7,9.71-11,9.71m-40.28-8.83c1.85,2.5,4.19,4.83,5.91,4.83h34.37c.9,0,3.11-2.11,5.33-4.83Z"/></g><g id="_surf-group_" data-name="&lt;surf-group&gt;"><path class="cls-7" d="M477.31,338a70.45,70.45,0,1,0,70.45-70.45A70.45,70.45,0,0,0,477.31,338"/><path class="cls-4" d="M547.76,278.53A59.45,59.45,0,1,1,488.31,338a59.52,59.52,0,0,1,59.45-59.45m0-11A70.45,70.45,0,1,0,618.2,338a70.45,70.45,0,0,0-70.44-70.45"/><path class="cls-6" d="M551.08,318.84c-9.84,0-24.31-1.6-30.53-4.18l-3.1-1.29,4.25-3.44-4.25-3.43,3.1-1.29c6.23-2.59,20.69-4.19,30.53-4.19a38.49,38.49,0,0,1,23.16,7.37l1.88,1.54-1.88,1.55a38.52,38.52,0,0,1-23.16,7.36M525.46,312c6.68,1.7,17.86,2.81,25.62,2.81a36.37,36.37,0,0,0,18.29-4.91A36.37,36.37,0,0,0,551.08,305c-7.76,0-18.94,1.11-25.62,2.81l2.59,2.1Z"/><path class="cls-8" d="M511.27,359c-6.33,0-11.48-4.73-11.48-10.55h5c0,3.05,2.9,5.53,6.46,5.53Z"/><path class="cls-8" d="M565.08,359v-5c3.56,0,6.46-2.48,6.46-5.53h5c0,5.82-5.15,10.55-11.48,10.55"/><path class="cls-8" d="M583,359c-6.33,0-11.48-4.73-11.48-10.55h5c0,3.05,2.9,5.53,6.46,5.53s6.45-2.48,6.45-5.53h5c0,5.82-5.15,10.55-11.48,10.55"/><path class="cls-8" d="M529.2,370.25c-6.32,0-11.47-4.73-11.47-10.55h5c0,3.05,2.89,5.53,6.45,5.53s6.46-2.48,6.46-5.53h5c0,5.82-5.15,10.55-11.48,10.55"/><path class="cls-8" d="M547.14,370.25c-6.33,0-11.48-4.73-11.48-10.55h5c0,3.05,2.9,5.53,6.46,5.53s6.46-2.48,6.46-5.53h5c0,5.82-5.15,10.55-11.48,10.55"/><path class="cls-8" d="M547.14,384.06c-6.33,0-11.48-4.73-11.48-10.55h5c0,3.05,2.9,5.53,6.46,5.53s6.46-2.48,6.46-5.53h5c0,5.82-5.15,10.55-11.48,10.55"/><path class="cls-8" d="M565.08,370.25c-6.33,0-11.48-4.73-11.48-10.55h5c0,3.05,2.9,5.53,6.46,5.53s6.46-2.48,6.46-5.53h5c0,5.82-5.15,10.55-11.48,10.55"/><path class="cls-8" d="M511.41,359h-.31l.3-5c.34,0,8.84.17,17.45-13.56,5.54-8.84,12.89-13.84,20.7-14.09a17.63,17.63,0,0,1,15.12,7.49l3.45,4.79-5.85-.84a6.27,6.27,0,0,0-4.42,1.18c-1.11,1-1.68,2.65-1.68,5,0,9.64,8.82,10.08,8.91,10.08v5c-4.55,0-13.93-3.69-13.93-15.1,0-3.84,1.16-6.79,3.44-8.76a9.54,9.54,0,0,1,2.69-1.63,12.76,12.76,0,0,0-7.57-2.17c-6.08.2-12,4.37-16.6,11.75C523.6,358.2,513.35,359,511.41,359"/></g><g id="_fishes-group_" data-name="&lt;fishes-group&gt;"><path class="cls-4" d="M671.86,477.11a70.45,70.45,0,1,0,70.44-70.45,70.44,70.44,0,0,0-70.44,70.45"/><path class="cls-4" d="M748.06,437.07v6.32s12.43-16,25.1-3c0,0-11.26,12.64-25.1-3.31"/><path class="cls-2" d="M746.06,449.23V431.71l3.51,4.05c.56.64,1.12,1.25,1.69,1.81a19.49,19.49,0,0,1,10.46-4.25c4.62-.25,8.95,1.65,12.87,5.67l1.3,1.33-1.24,1.4a17.55,17.55,0,0,1-12.19,5.41h-.1a18.19,18.19,0,0,1-11.13-4.25,21.67,21.67,0,0,0-1.59,1.74Zm8.32-9a13.93,13.93,0,0,0,8,2.89,12.74,12.74,0,0,0,7.84-2.78,11.76,11.76,0,0,0-8.23-3,14.86,14.86,0,0,0-7.57,2.92"/><path class="cls-4" d="M719.82,444.1v6.33s12.43-16,25.09-3c0,0-11.25,12.63-25.09-3.32"/><path class="cls-2" d="M717.82,456.23V438.74l3.51,4.05c.56.65,1.12,1.25,1.69,1.81a19.49,19.49,0,0,1,10.46-4.25c4.61-.26,8.95,1.65,12.87,5.67l1.3,1.34-1.24,1.39c-.2.22-5,5.48-12.29,5.42A18.31,18.31,0,0,1,723,449.92a19.8,19.8,0,0,0-1.59,1.74Zm8.32-9a13.93,13.93,0,0,0,8,2.89,13,13,0,0,0,7.8-2.78,11.77,11.77,0,0,0-8.23-3,14.8,14.8,0,0,0-7.58,2.93"/><path class="cls-4" d="M719.82,430.15v6.32s12.43-16,25.09-3c0,0-11.25,12.64-25.09-3.31"/><path class="cls-2" d="M717.82,442.27V424.79l3.51,4c.56.64,1.12,1.24,1.69,1.81a19.41,19.41,0,0,1,10.46-4.25c4.61-.26,8.95,1.65,12.87,5.67l1.3,1.33-1.24,1.39a17.52,17.52,0,0,1-12.19,5.42h-.1A18.19,18.19,0,0,1,723,436a21.67,21.67,0,0,0-1.59,1.74Zm8.32-8.95a14,14,0,0,0,8,2.89,12.88,12.88,0,0,0,7.84-2.78,11.76,11.76,0,0,0-8.22-3,14.88,14.88,0,0,0-7.58,2.93"/><path class="cls-4" d="M739.19,433.29a.16.16,0,1,1-.16-.16.16.16,0,0,1,.16.16"/><path class="cls-2" d="M739,434.45a1.16,1.16,0,1,1,1.16-1.16,1.16,1.16,0,0,1-1.16,1.16m0-2a.84.84,0,1,0,.84.84.85.85,0,0,0-.84-.84"/><path class="cls-4" d="M739.19,447.25a.16.16,0,1,1-.16-.16.16.16,0,0,1,.16.16"/><path class="cls-2" d="M739,448.41a1.16,1.16,0,1,1,1.16-1.16,1.16,1.16,0,0,1-1.16,1.16m0-2a.84.84,0,1,0,.84.84.85.85,0,0,0-.84-.84"/><path class="cls-4" d="M767.4,440.22a.16.16,0,0,1-.16.16.16.16,0,1,1,0-.32.16.16,0,0,1,.16.16"/><path class="cls-2" d="M767.24,441.38a1.16,1.16,0,1,1,1.16-1.16,1.16,1.16,0,0,1-1.16,1.16m0-2a.84.84,0,1,0,.83.84.83.83,0,0,0-.83-.84"/><path class="cls-9" d="M738.4,521.74c-8.07,0-17.5-2.53-27.61-10.18l-8.48,8.79v-24.1l9.44,9.44h74.83l.24,4-22.55,2.75a42.1,42.1,0,0,1-25.87,9.31M715,509.69c23.71,16.61,42.38,3.25,46.3,0Zm-8.72-3.78v4.54l2.23-2.31Z"/><path class="cls-9" d="M755.25,512.62a1.16,1.16,0,1,1,1.16-1.16,1.16,1.16,0,0,1-1.16,1.16m0-2a.84.84,0,1,0,.84.84.85.85,0,0,0-.84-.84"/><path class="cls-1" d="M758.64,486.12l-9.72-9.72a13.23,13.23,0,1,1,18.74,0Zm-.37-27.31a8.23,8.23,0,0,0-5.82,14.05l6,6.05,5.59-6.05a8.23,8.23,0,0,0-5.82-14.05"/><path class="cls-1" d="M754.85,467.55a1.16,1.16,0,1,1,1.16-1.16,1.16,1.16,0,0,1-1.16,1.16m0-2a.84.84,0,1,0,.84.84.85.85,0,0,0-.84-.84"/><path class="cls-1" d="M761.7,467.55a1.16,1.16,0,1,1,1.16-1.16,1.17,1.17,0,0,1-1.16,1.16m0-2a.84.84,0,0,0,0,1.68.84.84,0,0,0,0-1.68"/><path class="cls-1" d="M738.51,491.53c-2.22,0-8.77-.28-12-3.43a6.34,6.34,0,0,1-2-4.65,2.5,2.5,0,0,1,5,0,1.37,1.37,0,0,0,.47,1.05c1.6,1.55,6.32,2.13,9.16,2h7.11c.86,0,1.66,0,2.39,0a17.23,17.23,0,0,1-4.88-1.76c-1.79-1-3.2-1.84-4.44-2.61-4-2.47-6-3.7-14.15-3.7-2,0-4.72.34-6,2a5.73,5.73,0,0,0-.81,4.29,2.5,2.5,0,0,1-4.86,1.17,10.53,10.53,0,0,1,1.72-8.52c2-2.6,5.39-3.91,10-3.91,9.61,0,12.46,1.77,16.78,4.45,1.18.73,2.52,1.56,4.18,2.45a10.26,10.26,0,0,0,10.68-.1l1.75-1.29,1.52,1.54c.3.3,2.84,3,1.52,6.17-1.39,3.34-6.27,4.89-15.35,4.89h-7.71"/><path class="cls-1" d="M753.81,499.75h-.56a2.5,2.5,0,1,1,0-5h.55c8.33,0,11.35-1.76,12.41-2.82a2.91,2.91,0,0,0,.9-2.2A3.62,3.62,0,0,0,766,487c-2-1.94-6.24-2.27-7.68-2.23h-.06a2.5,2.5,0,0,1-.08-5c.75,0,7.42-.12,11.29,3.64a8.64,8.64,0,0,1,2.62,6.37,7.92,7.92,0,0,1-2.38,5.74c-2.88,2.88-8.09,4.28-15.92,4.28"/></g><g id="_camping-group_" data-name="&lt;camping-group&gt;"><path class="cls-4" d="M966.55,411.2A70.45,70.45,0,1,0,1037,340.76a70.45,70.45,0,0,0-70.45,70.44"/><path class="cls-7" d="M991.71,416.64c-6.33,0-11.47-4.73-11.47-10.54h5c0,3.06,2.9,5.54,6.47,5.54s6.47-2.48,6.47-5.54h5c0,5.81-5.15,10.54-11.47,10.54"/><path class="cls-7" d="M1009.65,416.64c-6.33,0-11.47-4.73-11.47-10.54h5c0,3.06,2.9,5.54,6.47,5.54s6.46-2.48,6.46-5.54h5c0,5.81-5.14,10.54-11.46,10.54"/><path class="cls-7" d="M1027.58,416.64c-6.32,0-11.47-4.73-11.47-10.54h5c0,3.06,2.91,5.54,6.47,5.54s6.47-2.48,6.47-5.54h5c0,5.81-5.14,10.54-11.47,10.54"/><path class="cls-7" d="M1045.52,416.64c-6.32,0-11.47-4.73-11.47-10.54h5c0,3.06,2.9,5.54,6.47,5.54s6.47-2.48,6.47-5.54h5c0,5.81-5.15,10.54-11.47,10.54"/><path class="cls-7" d="M1063.46,416.64c-6.33,0-11.47-4.73-11.47-10.54h5c0,3.06,2.9,5.54,6.47,5.54s6.47-2.48,6.47-5.54h5c0,5.81-5.15,10.54-11.47,10.54"/><path class="cls-7" d="M1081.39,416.64c-6.32,0-11.46-4.73-11.46-10.54h5c0,3.06,2.9,5.54,6.46,5.54s6.47-2.48,6.47-5.54h5c0,5.81-5.14,10.54-11.47,10.54"/><path class="cls-4" d="M1032.44,406.45a7.11,7.11,0,0,0,2.57-6.29s1.91,2.69,4.72,5.87c3.76,3.83,3.61,7.69,3.61,7.69h0l0,.47a13.2,13.2,0,1,1-26.4,0V414h0s-.2-5.44,5.1-10.84c4-4.48,6.66-8.28,6.66-8.28s-.8,7.77,3.7,11.54"/><path class="cls-10" d="M1030.17,429.39a15.21,15.21,0,0,1-15.2-15.2V412h.2a19.23,19.23,0,0,1,5.45-10.2c3.81-4.33,6.46-8,6.49-8.08l4.39-6.16-.77,7.53c0,.05-.46,5,1.69,8.29a5,5,0,0,0,.61-2.93l-1.21-8.23,4.82,6.75s1.87,2.63,4.55,5.67a14.42,14.42,0,0,1,3.92,7.05h.18l.08,2.41a15.23,15.23,0,0,1-15.2,15.26M1019,415.45a11.2,11.2,0,0,0,22.24.13l.07-1.94c0-.1,0-3.1-3-6.21l-.07-.07c-.77-.87-1.47-1.7-2.08-2.46a9.16,9.16,0,0,1-2.42,3.08l-1.28,1.08-1.29-1.08a12.91,12.91,0,0,1-4.09-7.6c-1,1.23-2.17,2.64-3.49,4.14l-.07.07c-4.58,4.66-4.53,9.32-4.53,9.36Z"/><path class="cls-4" d="M1035.72,387.28a8.55,8.55,0,0,0-2.18-6.11,3.72,3.72,0,0,1,2.18,6.11"/><path class="cls-10" d="M1033.38,391.83l.34-4.69a6.54,6.54,0,0,0-1.59-4.55l-4-4,5.58.55a5.71,5.71,0,0,1,3.27,9.64Z"/><path class="cls-4" d="M1031.08,404.94s5.15,5.7,5.15,9.85"/><path class="cls-10" d="M1038.23,414.79h-4c0-2.45-2.84-6.52-4.63-8.52l3-2.67c.58.64,5.66,6.41,5.66,11.19"/><path class="cls-11" d="M1030.21,426.36a5.61,5.61,0,0,1-5.61-5.61c0-2.43,2.83-6.24,4.05-7.76l1.56-2,1.56,2c1.22,1.52,4.06,5.33,4.06,7.76a5.62,5.62,0,0,1-5.62,5.61m0-8.72a10.35,10.35,0,0,0-1.61,3.12,1.62,1.62,0,0,0,3.23,0,10.6,10.6,0,0,0-1.62-3.12"/><rect class="cls-2" x="1008.41" y="430.8" width="43.44" height="5" transform="translate(-84.58 353.72) rotate(-18.73)"/><rect class="cls-2" x="1027.63" y="411.58" width="5" height="43.44" transform="translate(288.88 1269.64) rotate(-71.26)"/><path class="cls-4" d="M1068.87,381.19a8.21,8.21,0,1,1-8.21-8.22,8.22,8.22,0,0,1,8.21,8.22"/><path class="cls-10" d="M1060.66,391.4a10.22,10.22,0,1,1,10.21-10.21,10.22,10.22,0,0,1-10.21,10.21m0-16.43a6.22,6.22,0,1,0,6.21,6.22,6.22,6.22,0,0,0-6.21-6.22"/></g><g id="_party-group_" data-name="&lt;party-group&gt;"><path class="cls-12" d="M1022.86,111.5a70.45,70.45,0,1,0,70.44-70.44,70.45,70.45,0,0,0-70.44,70.44"/><path class="cls-4" d="M1093.3,52.06a59.45,59.45,0,1,1-59.44,59.44,59.52,59.52,0,0,1,59.44-59.44m0-11a70.45,70.45,0,1,0,70.45,70.44,70.44,70.44,0,0,0-70.45-70.44"/><path class="cls-7" d="M1048.46,118.28c-5.77,0-10.47-4.28-10.47-9.54h3c0,3.61,3.35,6.54,7.47,6.54s7.47-2.93,7.47-6.54h3c0,5.26-4.7,9.54-10.47,9.54"/><path class="cls-7" d="M1066.4,118.28c-5.77,0-10.47-4.28-10.47-9.54h3c0,3.61,3.35,6.54,7.47,6.54s7.47-2.93,7.47-6.54h3c0,5.26-4.7,9.54-10.47,9.54"/><path class="cls-7" d="M1084.33,118.28c-5.77,0-10.46-4.28-10.46-9.54h3c0,3.61,3.35,6.54,7.46,6.54s7.47-2.93,7.47-6.54h3c0,5.26-4.69,9.54-10.47,9.54"/><path class="cls-7" d="M1102.27,118.28c-5.77,0-10.47-4.28-10.47-9.54h3c0,3.61,3.35,6.54,7.47,6.54s7.47-2.93,7.47-6.54h3c0,5.26-4.7,9.54-10.47,9.54"/><path class="cls-7" d="M1120.21,118.28c-5.77,0-10.47-4.28-10.47-9.54h3c0,3.61,3.35,6.54,7.47,6.54s7.47-2.93,7.47-6.54h3c0,5.26-4.7,9.54-10.47,9.54"/><path class="cls-7" d="M1138.15,118.28c-5.78,0-10.47-4.28-10.47-9.54h3c0,3.61,3.35,6.54,7.47,6.54s7.47-2.93,7.47-6.54h3c0,5.26-4.7,9.54-10.47,9.54"/><rect class="cls-12" x="1061.94" y="111.5" width="7.1" height="8.83"/><rect class="cls-2" x="1059.94" y="98.15" width="4" height="22.49"/><rect class="cls-2" x="1066.42" y="102.87" width="4" height="21.12"/><path class="cls-13" d="M1066.49,106.34a9.24,9.24,0,0,0-4.93-5.61c-3.58-1.6-7,.22-9.53,2l-2.28-3.29c1.82-1.26,7.35-5.07,13.44-2.35a13.26,13.26,0,0,1,7.18,8.29l-3.89,1,1.94-.48Z"/><path class="cls-13" d="M1070.36,106.34l-3.88-1a13.26,13.26,0,0,1,7.18-8.29c6.09-2.72,11.62,1.09,13.44,2.35l-2.27,3.29c-2.56-1.77-6-3.59-9.53-2a9.24,9.24,0,0,0-4.94,5.61"/><path class="cls-13" d="M1063.93,95.21l-4-.15a11.42,11.42,0,0,0-3.22-7.65c-3-3.12-6.69-2.86-9.56-2.29l-.78-3.93c2.06-.4,8.31-1.64,13.21,3.44a15.44,15.44,0,0,1,4.34,10.58"/><path class="cls-13" d="M1060,95.06a15.43,15.43,0,0,1,4.34-10.57c4.89-5.08,11.15-3.85,13.21-3.44l-.78,3.92c-2.87-.56-6.56-.81-9.55,2.29a11.64,11.64,0,0,0-3.23,7.64Z"/><path class="cls-13" d="M1060,98.61a9.18,9.18,0,0,0-4.93-5.62c-3.57-1.6-7,.22-9.53,2l-2.27-3.29c1.82-1.26,7.35-5.07,13.44-2.35a13.26,13.26,0,0,1,7.17,8.29Z"/><path class="cls-13" d="M1063.88,98.61l-3.88-1a13.26,13.26,0,0,1,7.18-8.29c6.08-2.72,11.61,1.09,13.43,2.35L1078.34,95c-2.56-1.77-5.95-3.58-9.53-2a9.15,9.15,0,0,0-4.93,5.62"/><path class="cls-14" d="M1111.51,70.49a16.44,16.44,0,0,0-2.47,8.67,14.67,14.67,0,0,0,2.86,8.69,8.69,8.69,0,0,1-.39-17.36m.53-3a11.69,11.69,0,1,0,5.84,21.8A11.66,11.66,0,0,1,1112,79.16c0-4.32,2.12-9.07,5.84-10.11a10,10,0,0,0-5.84-1.58"/><path class="cls-12" d="M1108.6,141.73h-15.46V117.62a7.59,7.59,0,0,1,3.79-6.6l.72-12h6.45l.72,12a7.6,7.6,0,0,1,3.78,6.6Z"/><path class="cls-4" d="M1100.87,112.05l.08,1.33,1.84,1.08a3.63,3.63,0,0,1,1.81,3.16v20.11h-7.46V117.62a3.62,3.62,0,0,1,1.81-3.15l1.84-1.08.08-1.34m3.23-13h-6.45l-.72,12a7.59,7.59,0,0,0-3.79,6.6v24.11h15.46V117.62a7.6,7.6,0,0,0-3.78-6.6Z"/><path class="cls-12" d="M1127,147.67h-15.46V123.56a7.62,7.62,0,0,1,3.78-6.61l.72-12h6.45l.72,12a7.62,7.62,0,0,1,3.79,6.61Z"/><path class="cls-4" d="M1119.27,118l.09,1.34,1.83,1.08a3.64,3.64,0,0,1,1.82,3.16v20.11h-7.46V123.56a3.64,3.64,0,0,1,1.8-3.16l1.84-1.08.08-1.34m3.23-13h-6.45l-.72,12a7.62,7.62,0,0,0-3.78,6.61v24.11H1127V123.56a7.62,7.62,0,0,0-3.79-6.61Z"/><rect class="cls-2" x="1078.42" y="142.07" width="9.08" height="4"/><path class="cls-14" d="M1089,149.17h-12.19l-1.26-16.37h14.72Zm-9.41-3h6.64l.8-10.37h-8.24Z"/></g></svg>