<svg xmlns="http://www.w3.org/2000/svg" viewBox="0 0 50 50"><defs><style>.cls-1{fill:#00dbdc;}.cls-2{fill:#f8ff81;}</style></defs><title>icon_2</title><g id="Layer_2" data-name="Layer 2"><g id="Layer_1-2" data-name="Layer 1"><path class="cls-1" d="M50,25A25,25,0,1,1,25,0,25,25,0,0,1,50,25"/><path class="cls-2" d="M22.78,41.29l-.59-1c-2-3.48-3.05-11.9-3.05-18.06A17.1,17.1,0,0,1,24.35,9.49L25,9l.64.54a17,17,0,0,1,5.23,12.69c0,6.16-1.07,14.58-3.06,18.06l-.6,1L25,39.39ZM25,36.76l1.6,1.37c1.43-3.6,2.27-10.59,2.27-16A15.67,15.67,0,0,0,25,11.67a15.8,15.8,0,0,0-3.86,10.51c0,5.36.83,12.35,2.26,16Z"/></g></g></svg>