<svg xmlns="http://www.w3.org/2000/svg" viewBox="0 0 50 50"><defs><style>.cls-1{fill:#00dbdc;}.cls-2{fill:#f8ff81;}</style></defs><title>icon_5</title><g id="Layer_2" data-name="Layer 2"><g id="Layer_1-2" data-name="Layer 1"><path class="cls-1" d="M50,25A25,25,0,1,1,25,0,25,25,0,0,1,50,25"/><path class="cls-2" d="M34.75,37.63H15.25V11.54h19.5Zm-17.5-2h15.5V13.54H17.25Z"/><path class="cls-2" d="M25,21.65a3.11,3.11,0,1,1,3.11-3.11A3.11,3.11,0,0,1,25,21.65m0-4.21a1.11,1.11,0,1,0,1.11,1.1A1.11,1.11,0,0,0,25,17.44"/><path class="cls-2" d="M25,34.65a6.25,6.25,0,1,1,6.25-6.24A6.25,6.25,0,0,1,25,34.65m0-10.49a4.25,4.25,0,1,0,4.25,4.25A4.25,4.25,0,0,0,25,24.16"/></g></g></svg>