<svg xmlns="http://www.w3.org/2000/svg" viewBox="0 0 50 50"><defs><style>.cls-1{fill:#00dbdc;}.cls-2{fill:#f8ff81;}</style></defs><title>icon_4</title><g id="Layer_2" data-name="Layer 2"><g id="Layer_1-2" data-name="Layer 1"><path class="cls-1" d="M50,25A25,25,0,1,1,25,0,25,25,0,0,1,50,25"/><polygon class="cls-2" points="41.05 27.48 18.05 27.48 8.93 18.37 10.34 16.95 18.88 25.48 41.05 25.48 41.05 27.48"/><rect class="cls-2" x="12.57" y="29.28" width="7.5" height="2" transform="translate(-17.96 33.08) rotate(-66.34)"/><rect class="cls-2" x="33.72" y="26.3" width="2" height="7.24" transform="translate(-7.66 12.48) rotate(-18.39)"/><rect class="cls-2" x="19.99" y="9.91" width="4.43" height="2" transform="translate(-2.14 15.31) rotate(-36.42)"/><rect class="cls-2" x="24.86" y="13.8" width="4.43" height="2" transform="translate(2.67 33.67) rotate(-66.39)"/><rect class="cls-2" x="32.23" y="13.51" width="2" height="4.43" transform="translate(-1.55 3.82) rotate(-6.44)"/></g></g></svg>