<svg xmlns="http://www.w3.org/2000/svg" viewBox="0 0 50 50"><defs><style>.cls-1{fill:#00dbdc;}.cls-2{fill:#f8ff81;}</style></defs><title>Asset 1</title><g id="Layer_2" data-name="Layer 2"><g id="Layer_1-2" data-name="Layer 1"><path class="cls-1" d="M50,25A25,25,0,1,1,25,0,25,25,0,0,1,50,25"/><path class="cls-2" d="M42.27,29.1H34.42a7.68,7.68,0,0,1-5.7-3.27c-1.66-2.51-1.59-5.92.2-10.12l1.84.78c-1.52,3.55-1.64,6.32-.37,8.24a5.68,5.68,0,0,0,4,2.37h7.85Z"/><path class="cls-2" d="M16.43,29.1H7.73v-2h6.7a13.07,13.07,0,0,1,4.89-8.62c4.8-4,10.63-3.62,14.59-3l-.31,2c-3.58-.57-8.82-.91-13,2.56-4.39,3.65-4.22,8-4.22,8Z"/></g></g></svg>