<svg xmlns="http://www.w3.org/2000/svg" viewBox="0 0 50 50"><defs><style>.cls-1{fill:#00dbdc;}.cls-2{fill:#f8ff81;}</style></defs><title>icon_3</title><g id="Layer_2" data-name="Layer 2"><g id="Layer_1-2" data-name="Layer 1"><path class="cls-1" d="M50,25A25,25,0,1,1,25,0,25,25,0,0,1,50,25"/><path class="cls-2" d="M39.27,35.46H13.63v-22H27.29V23.74l7.15,1.19a7.08,7.08,0,0,1,5.76,7,7,7,0,0,1-.66,3Zm-23.64-2H38a4.91,4.91,0,0,0,.25-1.57,5.09,5.09,0,0,0-4.12-5l-8.79-1.45V15.5H15.63Z"/><rect class="cls-2" x="20.37" y="18.56" width="5.92" height="2"/><rect class="cls-2" x="14.63" y="32.02" width="24.42" height="2"/></g></g></svg>